<mxfile host="app.diagrams.net" agent="Mozilla/5.0 (Macintosh; Intel Mac OS X 10_15_7) AppleWebKit/537.36 (KHTML, like Gecko) Chrome/128.0.0.0 Safari/537.36" version="24.7.16">
  <diagram name="第 1 页" id="bhpy-QuOWdtCQRiuKCQQ">
    <mxGraphModel dx="1593" dy="665" grid="0" gridSize="10" guides="1" tooltips="1" connect="1" arrows="1" fold="1" page="0" pageScale="1" pageWidth="827" pageHeight="1169" math="0" shadow="0">
      <root>
        <mxCell id="0" />
        <mxCell id="1" parent="0" />
        <mxCell id="NjmFUZkEel4W9JAImo7Q-39" style="edgeStyle=orthogonalEdgeStyle;rounded=0;orthogonalLoop=1;jettySize=auto;html=1;entryX=0.5;entryY=0;entryDx=0;entryDy=0;exitX=0.5;exitY=0;exitDx=0;exitDy=0;" edge="1" parent="1" source="NjmFUZkEel4W9JAImo7Q-1" target="NjmFUZkEel4W9JAImo7Q-9">
          <mxGeometry relative="1" as="geometry" />
        </mxCell>
        <mxCell id="NjmFUZkEel4W9JAImo7Q-47" value="&lt;span style=&quot;text-align: left;&quot;&gt;4. 返回AI助手回复内容&lt;/span&gt;" style="edgeLabel;html=1;align=center;verticalAlign=middle;resizable=0;points=[];" vertex="1" connectable="0" parent="NjmFUZkEel4W9JAImo7Q-39">
          <mxGeometry x="-0.0633" y="-1" relative="1" as="geometry">
            <mxPoint x="8" y="-16" as="offset" />
          </mxGeometry>
        </mxCell>
        <mxCell id="NjmFUZkEel4W9JAImo7Q-1" value="AI健康助手" style="rounded=1;whiteSpace=wrap;html=1;fillColor=#ffe6cc;strokeColor=#d79b00;" vertex="1" parent="1">
          <mxGeometry x="617" y="306.5" width="99" height="113" as="geometry" />
        </mxCell>
        <mxCell id="NjmFUZkEel4W9JAImo7Q-28" style="edgeStyle=orthogonalEdgeStyle;rounded=0;orthogonalLoop=1;jettySize=auto;html=1;entryX=0.25;entryY=1;entryDx=0;entryDy=0;exitX=0.5;exitY=1;exitDx=0;exitDy=0;" edge="1" parent="1" source="NjmFUZkEel4W9JAImo7Q-7" target="NjmFUZkEel4W9JAImo7Q-9">
          <mxGeometry relative="1" as="geometry" />
        </mxCell>
        <mxCell id="NjmFUZkEel4W9JAImo7Q-7" value="AI健康&lt;div&gt;评估管家&lt;/div&gt;" style="rounded=1;whiteSpace=wrap;html=1;fillColor=#ffe6cc;strokeColor=#d79b00;" vertex="1" parent="1">
          <mxGeometry x="613" y="478" width="99" height="64" as="geometry" />
        </mxCell>
        <mxCell id="NjmFUZkEel4W9JAImo7Q-12" style="edgeStyle=orthogonalEdgeStyle;rounded=0;orthogonalLoop=1;jettySize=auto;html=1;entryX=0;entryY=0.5;entryDx=0;entryDy=0;" edge="1" parent="1" source="NjmFUZkEel4W9JAImo7Q-9" target="NjmFUZkEel4W9JAImo7Q-10">
          <mxGeometry relative="1" as="geometry" />
        </mxCell>
        <mxCell id="NjmFUZkEel4W9JAImo7Q-45" value="&lt;div style=&quot;font-size: 12px; text-align: left;&quot;&gt;&lt;span style=&quot;font-size: 11px; background-color: initial;&quot;&gt;2. 后端根据业务&lt;/span&gt;&lt;/div&gt;&lt;div&gt;&lt;div style=&quot;text-align: left;&quot;&gt;&lt;span style=&quot;background-color: initial;&quot;&gt;逻辑生成背景信息对话C&lt;/span&gt;&lt;/div&gt;&lt;/div&gt;" style="edgeLabel;html=1;align=center;verticalAlign=middle;resizable=0;points=[];" vertex="1" connectable="0" parent="NjmFUZkEel4W9JAImo7Q-12">
          <mxGeometry x="-0.0621" y="3" relative="1" as="geometry">
            <mxPoint x="5" y="-23" as="offset" />
          </mxGeometry>
        </mxCell>
        <mxCell id="NjmFUZkEel4W9JAImo7Q-32" style="edgeStyle=orthogonalEdgeStyle;rounded=0;orthogonalLoop=1;jettySize=auto;html=1;entryX=0;entryY=0.5;entryDx=0;entryDy=0;exitX=0.75;exitY=1;exitDx=0;exitDy=0;" edge="1" parent="1" source="NjmFUZkEel4W9JAImo7Q-9" target="NjmFUZkEel4W9JAImo7Q-30">
          <mxGeometry relative="1" as="geometry" />
        </mxCell>
        <mxCell id="NjmFUZkEel4W9JAImo7Q-9" value="后端模块" style="rounded=1;whiteSpace=wrap;html=1;fillColor=#e1d5e7;strokeColor=#9673a6;" vertex="1" parent="1">
          <mxGeometry x="200" y="331" width="99" height="64" as="geometry" />
        </mxCell>
        <mxCell id="NjmFUZkEel4W9JAImo7Q-10" value="对话&lt;br&gt;U" style="rounded=0;whiteSpace=wrap;html=1;fillColor=#f5f5f5;fontColor=#333333;strokeColor=#666666;" vertex="1" parent="1">
          <mxGeometry x="444" y="331" width="24" height="64" as="geometry" />
        </mxCell>
        <mxCell id="NjmFUZkEel4W9JAImo7Q-17" style="edgeStyle=orthogonalEdgeStyle;rounded=0;orthogonalLoop=1;jettySize=auto;html=1;entryX=0;entryY=0.5;entryDx=0;entryDy=0;" edge="1" parent="1" source="NjmFUZkEel4W9JAImo7Q-14" target="NjmFUZkEel4W9JAImo7Q-9">
          <mxGeometry relative="1" as="geometry" />
        </mxCell>
        <mxCell id="NjmFUZkEel4W9JAImo7Q-44" value="1. 用户向AI&lt;br&gt;提问对话U" style="edgeLabel;html=1;align=center;verticalAlign=middle;resizable=0;points=[];" vertex="1" connectable="0" parent="NjmFUZkEel4W9JAImo7Q-17">
          <mxGeometry x="-0.1008" y="4" relative="1" as="geometry">
            <mxPoint x="2" y="26" as="offset" />
          </mxGeometry>
        </mxCell>
        <mxCell id="NjmFUZkEel4W9JAImo7Q-14" value="对话&lt;br&gt;U" style="rounded=0;whiteSpace=wrap;html=1;fillColor=#f5f5f5;fontColor=#333333;strokeColor=#666666;" vertex="1" parent="1">
          <mxGeometry x="47" y="331" width="24" height="64" as="geometry" />
        </mxCell>
        <mxCell id="NjmFUZkEel4W9JAImo7Q-16" style="edgeStyle=orthogonalEdgeStyle;rounded=0;orthogonalLoop=1;jettySize=auto;html=1;entryX=0;entryY=0.5;entryDx=0;entryDy=0;" edge="1" parent="1" source="NjmFUZkEel4W9JAImo7Q-15" target="NjmFUZkEel4W9JAImo7Q-14">
          <mxGeometry relative="1" as="geometry" />
        </mxCell>
        <mxCell id="NjmFUZkEel4W9JAImo7Q-15" value="用户" style="shape=umlActor;verticalLabelPosition=bottom;verticalAlign=top;html=1;outlineConnect=0;fillColor=#60a917;fontColor=#ffffff;strokeColor=#2D7600;" vertex="1" parent="1">
          <mxGeometry x="-66" y="333" width="30" height="60" as="geometry" />
        </mxCell>
        <mxCell id="NjmFUZkEel4W9JAImo7Q-19" style="edgeStyle=orthogonalEdgeStyle;rounded=0;orthogonalLoop=1;jettySize=auto;html=1;entryX=0;entryY=0.5;entryDx=0;entryDy=0;" edge="1" parent="1" source="NjmFUZkEel4W9JAImo7Q-18" target="NjmFUZkEel4W9JAImo7Q-1">
          <mxGeometry relative="1" as="geometry">
            <Array as="points">
              <mxPoint x="559" y="363" />
              <mxPoint x="559" y="363" />
            </Array>
          </mxGeometry>
        </mxCell>
        <mxCell id="NjmFUZkEel4W9JAImo7Q-46" value="&lt;div style=&quot;text-align: left;&quot;&gt;&lt;span style=&quot;background-color: initial;&quot;&gt;3. 两个对话&lt;/span&gt;&lt;/div&gt;&lt;div style=&quot;text-align: left;&quot;&gt;&lt;span style=&quot;background-color: initial;&quot;&gt;分先后发给AI助手&lt;/span&gt;&lt;/div&gt;" style="edgeLabel;html=1;align=center;verticalAlign=middle;resizable=0;points=[];" vertex="1" connectable="0" parent="NjmFUZkEel4W9JAImo7Q-19">
          <mxGeometry x="0.008" relative="1" as="geometry">
            <mxPoint y="-27" as="offset" />
          </mxGeometry>
        </mxCell>
        <mxCell id="NjmFUZkEel4W9JAImo7Q-18" value="对话&lt;br&gt;C" style="rounded=0;whiteSpace=wrap;html=1;fillColor=#dae8fc;strokeColor=#6c8ebf;" vertex="1" parent="1">
          <mxGeometry x="468" y="331" width="24" height="64" as="geometry" />
        </mxCell>
        <mxCell id="NjmFUZkEel4W9JAImo7Q-41" style="edgeStyle=orthogonalEdgeStyle;rounded=0;orthogonalLoop=1;jettySize=auto;html=1;entryX=0;entryY=0.5;entryDx=0;entryDy=0;" edge="1" parent="1" source="NjmFUZkEel4W9JAImo7Q-30" target="NjmFUZkEel4W9JAImo7Q-7">
          <mxGeometry relative="1" as="geometry" />
        </mxCell>
        <mxCell id="NjmFUZkEel4W9JAImo7Q-30" value="对话&lt;br&gt;C1" style="rounded=0;whiteSpace=wrap;html=1;fillColor=#dae8fc;strokeColor=#6c8ebf;" vertex="1" parent="1">
          <mxGeometry x="468" y="478" width="24" height="64" as="geometry" />
        </mxCell>
        <mxCell id="NjmFUZkEel4W9JAImo7Q-37" value="&lt;div style=&quot;text-align: left;&quot;&gt;&lt;br&gt;&lt;/div&gt;&lt;div style=&quot;font-size: 11px;&quot;&gt;&lt;div style=&quot;text-align: left;&quot;&gt;&lt;br&gt;&lt;/div&gt;&lt;div style=&quot;text-align: left;&quot;&gt;&lt;br&gt;&lt;/div&gt;&lt;/div&gt;" style="text;html=1;align=center;verticalAlign=middle;resizable=0;points=[];autosize=1;strokeColor=none;fillColor=none;" vertex="1" parent="1">
          <mxGeometry x="501" y="181" width="18" height="53" as="geometry" />
        </mxCell>
        <mxCell id="NjmFUZkEel4W9JAImo7Q-42" value="&lt;div&gt;6. 后端根据AI健康助手&lt;/div&gt;&lt;div&gt;返回内容判断&lt;/div&gt;&lt;div&gt;需要调用AI健康评估管家&lt;/div&gt;" style="text;html=1;align=center;verticalAlign=middle;resizable=0;points=[];autosize=1;strokeColor=none;fillColor=none;" vertex="1" parent="1">
          <mxGeometry x="295" y="442" width="149" height="55" as="geometry" />
        </mxCell>
        <mxCell id="NjmFUZkEel4W9JAImo7Q-48" style="edgeStyle=orthogonalEdgeStyle;rounded=0;orthogonalLoop=1;jettySize=auto;html=1;entryX=0.5;entryY=0;entryDx=0;entryDy=0;entryPerimeter=0;exitX=0.25;exitY=0;exitDx=0;exitDy=0;" edge="1" parent="1" source="NjmFUZkEel4W9JAImo7Q-9" target="NjmFUZkEel4W9JAImo7Q-15">
          <mxGeometry relative="1" as="geometry">
            <Array as="points">
              <mxPoint x="225" y="299" />
              <mxPoint x="-51" y="299" />
            </Array>
          </mxGeometry>
        </mxCell>
        <mxCell id="NjmFUZkEel4W9JAImo7Q-49" value="5. 跟用户确认是否&lt;br&gt;需要AI评估" style="edgeLabel;html=1;align=center;verticalAlign=middle;resizable=0;points=[];" vertex="1" connectable="0" parent="NjmFUZkEel4W9JAImo7Q-48">
          <mxGeometry x="0.134" y="-1" relative="1" as="geometry">
            <mxPoint x="18" y="-3" as="offset" />
          </mxGeometry>
        </mxCell>
        <mxCell id="NjmFUZkEel4W9JAImo7Q-51" value="&lt;span style=&quot;color: rgb(0, 0, 0); font-family: Helvetica; font-size: 11px; font-style: normal; font-variant-ligatures: normal; font-variant-caps: normal; font-weight: 400; letter-spacing: normal; orphans: 2; text-align: center; text-indent: 0px; text-transform: none; widows: 2; word-spacing: 0px; -webkit-text-stroke-width: 0px; white-space: nowrap; background-color: rgb(255, 255, 255); text-decoration-thickness: initial; text-decoration-style: initial; text-decoration-color: initial; display: inline !important; float: none;&quot;&gt;7. AI评估管家&lt;/span&gt;&lt;br style=&quot;forced-color-adjust: none; color: rgb(0, 0, 0); font-family: Helvetica; font-size: 11px; font-style: normal; font-variant-ligatures: normal; font-variant-caps: normal; font-weight: 400; letter-spacing: normal; orphans: 2; text-align: center; text-indent: 0px; text-transform: none; widows: 2; word-spacing: 0px; -webkit-text-stroke-width: 0px; white-space: nowrap; text-decoration-thickness: initial; text-decoration-style: initial; text-decoration-color: initial;&quot;&gt;&lt;span style=&quot;color: rgb(0, 0, 0); font-family: Helvetica; font-size: 11px; font-style: normal; font-variant-ligatures: normal; font-variant-caps: normal; font-weight: 400; letter-spacing: normal; orphans: 2; text-align: center; text-indent: 0px; text-transform: none; widows: 2; word-spacing: 0px; -webkit-text-stroke-width: 0px; white-space: nowrap; background-color: rgb(255, 255, 255); text-decoration-thickness: initial; text-decoration-style: initial; text-decoration-color: initial; display: inline !important; float: none;&quot;&gt;输出评估问题&lt;/span&gt;" style="text;whiteSpace=wrap;html=1;" vertex="1" parent="1">
          <mxGeometry x="325" y="544" width="94" height="51" as="geometry" />
        </mxCell>
      </root>
    </mxGraphModel>
  </diagram>
</mxfile>
